<svg xmlns="http://www.w3.org/2000/svg" width="770" height="160" viewBox="0 0 770 160">
 <g transform="translate(-3.6747 -.61244)">
  <path d="m482.57 77.182c-5.8755 0.02915-11.751 0.11418-17.627 0.28516-11.981 0.22484-23.956 0.68315-35.938 1.0293-2.625 0.11294-5.1331 0.2269-7.6445 0.33984v-0.01367c-8.5542 0.343-16.996 0.68949-25.438 1.1465-6.624 0.34928-13.237 0.69026-19.855 1.1504-0.56711 0-1.2484 0.11109-1.8262 0.11133v-2e-3c-1.4771 0.11608-2.8492 0.22376-4.2148 0.33984v2e-3h-0.34375c-0.68021 0-1.2573 0.11719-1.9375 0.11719-0.11875 0-0.35065 3.4e-4 -0.45898 0.11328h0.91211c0.57084 0 1.1427-3.4e-4 1.8281-0.11328v-0.0039c0.68021 0 1.3663 8.43e-4 2.0527-0.11524 0.68481 0 1.3642-0.0014 2.1602-0.11719v0.0078c4.225-0.22693 8.3301-0.46057 12.549-0.6875 11.529-0.68601 23.048-1.2586 34.572-1.7188v0.01367c4.1073-0.23006 8.3284-0.34304 12.434-0.45703 16.775-0.57621 33.549-0.91859 50.318-1.0273 6.3875 0 12.665 6.17e-4 19.053 0.10938 2.1667 0 4.4487 0.11914 6.6133 0.11914 1.4896 0 2.8557 0.11599 4.2266 0.22266h-19.961c-17.115 0.11608-34.224 0.34608-51.229 0.91602-7.1865 0.11608-14.376 0.45744-21.447 0.6875v1.3164c-3e-3 8.9e-5 -5e-3 -8.9e-5 -8e-3 0v-1.3262c-10.953 0.45595-21.794 1.0305-32.631 1.7207-4.7942 0.22376-9.692 0.56797-14.488 0.91406v1.2539h-2e-3v0.0059c0.22916 0 0.45833-3.4e-4 0.6875-0.11328h1.9414c-0.1125 0-0.34479 3.4e-4 -0.45313 0.11328-0.80344 0-1.4859 0.11113-2.1738 0.11133h-0.10747c-1.3681 0.10975-2.7405 0.23399-4.1055 0.34375v-2e-3c-1.601 0.22693-3.1923 0.34095-4.7871 0.45703-8.674 0.68287-17.238 1.3726-25.9 2.1758h-0.34765v0.0039c-3.7594 0.34301-7.6448 0.68588-11.406 1.0352-1.4844 0.10771-2.968 0.22732-4.4492 0.33398-1.024 0-2.0509 0.11523-3.0801 0.11523-0.11562 0-0.46041 0.1098-0.6875 0-0.1125-0.11608 0.11914-0.1169 0.11914-0.22461 0.10938 0 0.33854-0.11914 0.45313-0.11914h0.11523c0.23229 0 0.45559-0.10742 0.68164-0.10742 1.0271 0 2.059-0.1153 3.084-0.23242 3.65-0.34614 7.1822-0.57419 10.721-0.91406 1.4833-0.11294 2.965-0.22962 4.4473-0.3457 4.6813-0.45908 9.3591-0.80466 14.035-1.1445 5.7021-0.46222 11.296-0.91439 17-1.2637v-0.0039h0.56445c1.2598-0.10974 2.3992-0.22449 3.6484-0.22461v-1.2539h2e-3v-0.0039c-1.4771 0.11294-2.8492 0.22886-4.2148 0.3418v0.0039h-0.56836c-3.1969 0.22693-6.2789 0.45939-9.4726 0.68945-1.2563 0.11294-2.6256 0.2269-3.8809 0.33984-1.025 0.1098-2.0542 0.10902-3.0781 0.23242-1.7136 0.1098-3.3118 0.10944-5.0254 0.22656-0.56146 0-1.2473 0.0015-1.8223 0.11133-0.90937 0-1.9351 0.11139-2.8476 0.22852-1.4875 0-2.968 0.11139-4.3398 0.22852v2e-3c-1.5973 0.11603-3.1969 0.23319-4.791 0.45898-9.6969 0.68601-19.275 1.6059-28.975 2.6328-3.8834 0.34301-7.7565 0.80662-11.637 1.1465v2e-3c-24.072 2.6353-48.024 5.7274-71.871 9.3906-44.832 6.8716-89.208 15.235-133.36 25.885-13.8 3.3213-27.494 6.7591-41.184 10.533-3.5323 1.0353-7.1893 2.0628-10.723 3.0918-2.8531 0.80313-5.7069 1.6086-8.4434 2.5215-1.599 0.45699-3.194 1.0324-4.793 1.6055l0.23047 0.22656c0.11562 0 0.34753 4.2e-4 0.45898-0.10937 0.33854 0 0.67956-0.11726 1.0254-0.23438 1.1417-0.33987 2.2822-0.68519 3.4238-0.91211 3.8771-1.1493 7.8741-2.1757 11.748-3.3281 11.754-3.0881 23.388-6.1854 35.025-8.9336l16.656-3.7734c-17 4.0073-33.996 8.3543-50.885 13.051-7.7563 2.1783-15.514 4.3564-23.156 6.6445-1.2573 0.34301-2.5104 0.80034-3.7656 1.1465-0.9125 0.33987-1.9402 0.68121-2.8496 1.0274-0.79688 0.23006-1.4836 0.457-2.168 0.79687-0.45625 0.23321-0.91367 0.4621-1.373 0.69531-0.22604 0.10771 0.34375 0 0.34375 0 0.45313-0.11608 0.91289-0.23199 1.3691-0.34179 1.7146-0.45908 3.5376-1.0297 5.248-1.4961 5.1333-1.486 10.156-2.9788 15.289-4.4648 3.3094-0.93274 6.5334-1.8462 9.8223-2.6973-1.6471 0.48939-3.288 0.97101-5.0352 1.5527-1.2531 0.34301-2.6216 0.68754-3.8789 1.1445-0.34375 0.11608-0.68359 0.22767-1.0273 0.34375-0.22917 0-0.34089 0.11523-0.44922 0.11523-0.23229 0.1098 0.44922 0 0.44922 0 0.68334-0.11608 1.2578-0.3429 1.9453-0.45898 3.8771-1.029 7.7522-2.0577 11.748-3.0898 55.672-14.314 111.57-25.772 168.27-34.703l56.471-7.2188c-43.925 5.6125-87.617 12.715-131.31 20.957-14.943 2.8674-29.777 6.0755-44.604 9.5098-9.2438 2.0622-18.372 4.2404-27.383 6.5254-3.0813 0.80314-6.1611 1.6051-9.2402 2.4082-0.8727 0.21803-1.7519 0.44921-2.6289 0.77148 0.87085-0.18947 1.7833-0.37645 2.6289-0.65625 4.2188-1.0353 8.3254-2.0647 12.432-3.0938 13.35-3.2021 26.697-6.2983 40.047-9.2734 22.817-4.8073 45.635-9.281 68.564-13.285 38.905-6.7587 77.803-11.795 116.93-15.809v2e-3c5.2406-0.45595 10.609-1.0301 15.861-1.4902 9.8063-0.91608 19.732-1.7176 29.541-2.5176v-2.4043c-2.2781 0.11608-4.5596 0.3422-6.7305 0.57226-2.9604 0.2332-5.8168 0.3422-8.6699 0.57227-2.8521 0.22693-5.6974 0.46482-8.6641 0.80469-3.3125 0.22379-6.6191 0.57301-9.9316 0.91602-3.8761 0.45595-7.6385 0.80082-11.406 1.2578-21.448 2.4052-42.552 5.1564-63.887 7.7813-5.0219 0.68602 8.0979-1.1398 12.547-1.832 2.5104-0.33987 4.9116-0.68566 7.4199-1.0234 0.8-0.11608 1.7087-0.23472 2.5098-0.34766 0.34063 0 0.56459 0.0016 0.79688-0.11133h0.45312c13.234-1.8353 26.701-3.3214 40.16-4.8105v2e-3c10.268-1.0322 20.538-2.0636 30.916-2.9766 4.7969-0.45908 9.5851-0.80263 14.488-1.2617v-0.0039c5.824-0.45072 11.746-0.80271 17.572-1.1426 0.45313-0.11294 0.90899-0.11328 1.3652-0.11328h0.45703c-0.45625 0.11294-0.80078 0.11328-1.2539 0.11328-5.0188 0.46013-10.045 0.91919-15.172 1.373-1.0292 0-1.9438 0.11634-2.9688 0.23242v2.4062c10.271-0.7989 20.649-1.6026 31.033-2.1777v2e-3c1.3656-0.11608 2.7378-0.22858 4.2148-0.3457 9.0136-0.56993 17.916-1.0301 26.934-1.4902 6.726-0.34301 13.458-0.56953 20.188-0.80273v-2.1758c-18.027 0.68601-35.823 1.3729-43.695 1.832-0.68333 0.11608-1.4797 0.11719-2.1641 0.11719-0.45625 0-0.9138 0.11328-1.2617 0.11328h-0.10742c-0.45625 0-0.80156-3.4e-4 -1.2578-0.11328h-1.3691l2.7324-0.11523 47.121-2.2871v-1.9863c3e-3 -9.4e-5 5e-3 9.5e-5 8e-3 0v1.9961l24.643-1.1426c51.911-1.2591 13.232 0.11555-24.643 1.6016v2.1797c20.651-0.69229 41.305-1.0325 61.951-0.80664 3.9834-0.0115 7.9716 0.10309 12.082 0.21289h1.0254c1.025 0 2.1689 0.11523 3.3106 0.11523h26.24c5.5875 0 11.175 0.1153 16.771 0.23242 4.7823 0.11294 9.6927 0.34297 14.594 0.57617 4.9104 0.22693 9.9333 0.56681 14.844 0.79688 5.6948 0.34928 11.28 0.5809 16.99 0.80469 7.3 0.45908 14.716 0.80264 22.02 1.2617 5.8198 0.33987 11.524 0.68629 17.338 1.0293 5.9354 0.33673 11.761 0.79714 17.682 1.0293 1.9406 0.11294 3.8785 0.22377 5.8223 0.33984 0.11875 0 2.2832-3.41e-4 2.2832-0.11328 0-0.22693-2.5177-0.46023-2.625-0.57422-2.9667-0.34614-5.8204-0.68518-8.7871-0.91211-2.0604-0.2332-4.2242-0.45905-6.2773-0.57617-2.85-0.22693-5.5871-0.45939-8.4434-0.68945-5.249-0.33987-10.382-0.6918-15.625-1.0254-0.23542 0-0.45716 7.4e-5 -0.68945-0.11914h-1.0215l-0.11914-0.10742c0.4573-0.11608 0.92122-0.11725 1.3691-0.23438 0.22292-0.11608-0.22851-0.22852-0.22851-0.22852-0.21979 0-0.45756-0.0011-0.6836-0.11719-0.4573 0-0.91575 4.29e-4 -1.248-0.10938-0.68959 0-1.26-3.4e-4 -1.9434-0.11328-0.79688 0-1.7145-0.11328-2.627-0.11328-2.6219-0.11608-5.2467-0.2269-7.752-0.33984-10.044-0.45908-20.08-0.92219-30.117-1.375-14.605-0.46222-29.096-0.91565-43.691-1.1426-14.374-0.34614-28.751-0.3457-43.121-0.3457h-31.262c-1.7062 0.11294-3.5346 0.11133-5.2461 0.11133-4.1042 0.1098-8.2099 0.23395-12.32 0.34375-1.4802 0.11608-2.9702 0.11719-4.4473 0.11719-0.45729 0.1098-0.9138 0.10938-1.3711 0.10938h-0.45508l0.11523-0.10938h0.45508c0.45729 0 1.0264-0.0011 1.6035-0.11719 2.3927-0.1098 4.8967-0.23395 7.2988-0.34375 18.366-0.80314 36.614-1.1413 54.986-1.0273 9.8115 0 19.511 0.11487 29.32 0.3418 7.4156 0.11294 14.945 0.45701 22.473 0.79688 1.2542 0.12235 2.5115 0.12352 3.7656 0.23438 1.5958 0 3.1902 0.11523 4.7871 0.11523 3.8792 0.1098 7.7622 0.22377 11.754 0.33984 9.9271 0.34301 19.964 0.68991 29.885 1.1406 10.95 0.46222 22.019 1.151 32.971 1.9531 5.249 0.45386 10.498 0.7967 15.635 1.375 4.6688 0.45699 9.3476 0.91089 13.91 1.4902 1.1417 0.11294 2.2849 0.33991 3.5391 0.45703 1.251 0.11608 2.6224 0.23004 3.9922 0.33984 2.9698 0.34614 5.9326 0.69299 8.9024 0.91992 5.8136 0.57621 11.52 1.1444 17.342 1.6035 1.8219 0.22693 3.6441 0.3429 5.5879 0.45898 0.45209 0.11608 0.91197 0.11719 1.3672 0.11719h0.3418c0-0.11608-0.11107-0.11719-0.22461-0.11719-0.23542 0-0.45273 0.0016-0.69336-0.11133-0.33854 0-0.67669-0.11719-0.91211-0.11719-0.45729-0.1098-1.0201-0.10944-1.4805-0.22656-3.1917-0.33987-6.5003-0.80271-9.6992-1.1426-5.5844-0.57934-11.176-1.1468-16.77-1.8359-0.68333 0-1.3674-0.11258-2.1602-0.22656-0.4573 0-1.0288-0.11328-1.4902-0.11328-0.57396-0.11608-1.135-0.22572-1.709-0.3418-0.91563-0.23006-1.3733-0.80418-2.6191-1.0332-0.58021-0.1098-1.0307-0.22377-1.4922-0.33984-0.10938 0-0.21979-0.11328-0.10937-0.11328h0.67968c0.11875 0.11294 0.33958 0.11328 0.45313 0.11328 0.35104 0 0.80495 0.11523 1.1445 0.11523 1.2604 0.11294 2.3923 0.33991 3.5371 0.45703 3.6563 0.45908 7.2992 0.92101 10.949 1.377 5.1396 0.68601 10.266 1.2578 15.402 1.834 6.3938 0.8 12.669 1.4859 18.938 2.1719 3.7688 0.33987 7.4207 0.68706 11.064 1.0332 3.8875 0.33987 7.6449 0.80305 11.42 1.2559 2.8469 0.45699 5.6988 0.91919 8.4394 1.373 3.876 0.57621 7.7513 1.2593 11.637 1.9453 0.45521 0.11608 1.0253 0.22726 1.4805 0.34961 0.45729 0 0.91497 0.10868 1.3691 0.22266 1.025 0.10981 1.9434 0.33677 2.8496 0.45703 1.5958 0.2332 3.191 0.46016 4.791 0.69336 0.68646 0 1.5999 0.22531 2.2832 0.11132 0.22604 0-0.22266-0.11132-0.22266-0.11132-0.11875-0.11294-0.34844-0.11328-0.46094-0.11328-0.3448-0.11608-0.57044-0.11649-0.91211-0.23047-0.8-0.11294-1.7148-0.34682-2.5117-0.46289-1.4865-0.33674-2.9673-0.56367-4.334-0.79688-4.3365-0.80313-8.6745-1.4882-13.008-2.2871-11.752-1.8322-23.616-3.6671-35.479-5.1562-11.298-1.6052-22.708-2.8622-33.996-4.1191-3.7656-0.34614-7.4152-0.80585-11.178-1.1426-1.0312-0.11608-2.059-0.23353-3.084-0.34961-0.34167 0-0.56926-3.4e-4 -0.91406-0.11328h-0.22657c-1.0312-0.45699-2.0488-0.45576-3.0801-0.68164h0.33984c0.45521 0 0.91237 0.10938 1.4863 0.10938 2.5115 0.34301 5.0156 0.57267 7.6406 0.80274 14.493 1.6021 29.1 3.0913 43.58 4.8105 5.7073 0.68601 11.403 1.3754 17 1.9453 1.3646 0.22693 2.7327 0.3418 4.1035 0.3418l-0.23066-0.34194c-0.68333-0.23006-1.3632-0.33977-2.1621-0.45898-1.2542-0.22693-2.5049-0.45653-3.8789-0.68555-3.9885-0.68915-8.097-1.3761-12.092-1.9492-11.863-1.6052-23.615-3.0905-35.48-4.3496-12.778-1.3752-25.562-2.6358-38.449-3.668-9.0115-0.68601-17.904-1.3762-26.916-2.0664-36.045-2.515-71.987-3.3174-108.04-3.7754-5.8761-0.05438-11.753-0.08188-17.629-0.05273zm-429.58 59.902c-0.18696 0.0407-0.38384 0.10108-0.56445 0.14063-0.1119 0.0577-0.22471 0.0865-0.33789 0.11523 0.2305-0.11614 0.45682-0.22461 0.79492-0.22461 0.0358-0.0135 0.07161-0.0181 0.10742-0.0312zm640.92-43.604v2e-3h-0.125c-0.10417 0-7.8e-4 0.11523 0.1211 0.11523 0.22604 0.11294 0.45273 0.11328 0.56836 0.11328 0.22916-1e-6 0.34739 0.11719 0.57031 0.11719 0.11354 0 0.34818-4.29e-4 0.57422 0.10938 0.45209 0 0.91511 0.11523 1.3672 0.11523 2.0573 0.2332 4.1118 0.45814 6.166 0.57422 0.68333 0.11294 1.251 0.11328 1.9375 0.11328-0.10625 0-0.22618-3.4e-4 -0.3418-0.11328h-0.45703c-0.33958-0.11608-0.57082-0.11719-0.79687-0.11719-0.68333-0.11608-1.3711-0.22266-2.168-0.22266-2.5177-0.34719-5.0202-0.57658-7.416-0.80664zm33.314 4.0117c0.28161 0.03396 0.56227 0.07446 0.84375 0.10937-0.28158-0.05998-0.56279-0.10938-0.84375-0.10937zm0.84375 0.10937c0.17462 0.0372 0.34919 0.07711 0.52343 0.11914-0.34271 0 0.34185 0.22561 0.33985 0.22461 0.33854 0 0.56693 0.11719 0.91797 0.11719 0.33542 0.11399 0.78893 0.22656 1.2441 0.22656 1.1417 0.23634 2.2853 0.46009 3.4238 0.57617 1.4833 0.22693 2.8506 0.45862 4.334 0.68555 6.049 0.91294 12.098 1.9495 18.141 2.9785 2.1729 0.343 4.4552 0.68587 6.625 1.0352 1.8219 0.22693 3.6406 0.45549 5.4687 0.68555 0.34479 0.10981 0.68256 0.22544 1.0274 0.10938-0.11875 0-0.11849 4.3e-4 -0.22266-0.10938h-0.3457c-0.1125 0-0.34141-0.11523-0.45703-0.11523-0.22605 0-0.45131-0.11329-0.6836-0.11329-0.56458-0.11607-1.1432-0.22962-1.7109-0.3457-1.825-0.22379-3.6539-0.56986-5.4727-0.91601-11.016-1.6727-22.035-3.7792-33.152-5.1582zm-676.33 39.74c0 0.11607-0.11328 0.11718-0.11328 0.11718h0.11523c0.11325-0.0579 0.22725-0.0881 0.3418-0.11718zm-10.488 1.3789v0.11328h-0.11719z" fill="#fff200"/>
  <path d="m484.22 82.162c-5.9033 0.02876-11.805 0.11596-17.678 0.23047-11.978 0.34301-23.955 0.80585-35.934 1.1426-2.7375 0.11608-5.4785 0.22335-8.2129 0.3457v0.33789c4.3302-0.1098 8.6656-0.22683 13.109-0.45898 16.773-0.45386 33.543-0.79688 50.316-0.79688 6.3844 0 12.664 0.1153 19.055 0.23242 2.1667 0 4.3354 0.10944 6.6094 0.22656 1.3698 0 2.7389 0.10944 4.2285 0.22656h-0.57617c-1.2573 0.10771-2.5056 0.10938-3.7598 0.10937h-15.742c-17.115 0.12235-34.114 0.3477-51.229 0.80469-7.3 0.22379-14.604 0.46377-22.012 0.80469v2.2715c-1e-3 4.2e-5 -3e-3 -4.2e-5 -4e-3 0v-2.2871c-10.73 0.45699-21.337 0.91946-32.062 1.6055-5.0188 0.22693-10.038 0.57064-14.941 0.91992v-0.0039c-1.0312 0.10771-2.1652 0.10853-3.1934 0.22461v2e-3h-0.57617v2.1758h0.11719c0.11563-0.1098 0.34336-0.10938 0.45898-0.10938v-0.0039c1.0281 0 2.1621-0.11523 3.1934-0.11523v2e-3c0.33958 0 0.79415-0.11719 1.1348-0.11719h1.8301v0.11719h-0.4629c-0.67707 0.11712-1.4751 0.22656-2.2793 0.22656 0 0.11608-0.11016 0.11523-0.22266 0.11523-1.0312 0.11608-2.1652 0.22656-3.1934 0.22656-0.11562 0.1098-0.23189 0.11133-0.45898 0.11133v8.2539h0.45898c1.0281-0.11608 2.1621-0.11725 3.1934-0.23438v-4.3555c-0.34375 0-0.68776-8.94e-4 -0.91797-0.10547-0.3375-0.11608-0.5668-0.1153-0.79492-0.23242h-1.3691l3.082-0.11719v2e-3l47.004-2.0586v-3.3498c1e-3 -3.8e-5 3e-3 3.8e-5 4e-3 0v3.3633l25.203-1.0312c52.026-1.029 12.898 0.22989-25.203 1.6113v4.2344c20.762-0.56993 41.519-0.68712 62.287-0.11719 3.9886 0.0983 7.9833 0.20905 11.969 0.32617 0.34479 0.11608 0.6849 0.11523 1.0234 0.11523 1.1417 0 2.2829 0.11328 3.4277 0.11328 1.0219 0.1098 2.052 0.10938 3.0801 0.10938h8.3242c4.9042-0.1098 9.8146-0.22266 14.719-0.22266 5.5844-0.11608 11.066-0.0011 16.656 0.22266 4.9042 0.11608 9.8148 0.34958 14.605 0.68945 4.901 0.23006 9.8118 0.58005 14.713 0.91992 5.7042 0.34301 11.288 0.56953 16.994 0.80274 7.3 0.33673 14.606 0.68559 21.906 1.1426 5.8198 0.33987 11.517 0.573 17.342 0.91601 5.8136 0.23006 11.753 0.45695 17.566 0.57617 1.9344 0 3.8758 0.11607 5.8164 0 0.23541 0 2.2793-3.9e-4 2.2793-0.23046 0-0.34301-2.3993-0.68875-2.6191-0.80274-2.8531-0.45699-5.7074-0.80661-8.5606-1.1465-2.1729-0.22693-4.2228-0.33593-6.377-0.57227-2.7438-0.22693-5.598-0.34025-8.3418-0.57031-5.2427-0.34928-10.377-0.57496-15.629-0.91797h-0.57226c-0.22292 0-0.3306-0.0011-0.57227-0.11719h-0.5664l-0.10742-0.22656c0.45521-0.22693 1.0206-0.22683 1.3633-0.45898 0.22604-0.1098-0.11419-0.22461-0.22461-0.22461-0.21979-0.11608-0.45756-0.1153-0.6836-0.23242-0.34479 0-0.80286-0.10938-1.1445-0.10938-0.68021 0-1.2514-0.11719-1.9316-0.11719-0.80521-0.1098-1.7152-0.10938-2.6309-0.10938-2.625-0.11922-5.251-0.23004-7.75-0.33984-10.041-0.2332-19.965-0.69529-30.006-1.0352-14.493-0.57621-29.092-1.0282-43.572-1.252-14.389-0.34614-28.642-0.45982-43.025-0.58008-5.5844-0.1098-11.173-0.10938-16.77-0.10938-3.8729-0.11608-7.6359-0.11648-11.398-0.23047h-3.0762c-1.7208 0-3.4344 3.4e-4 -5.25 0.11328-4.1073 0-8.1046 0.11571-12.213 0.22656-1.4833 0-3.0737 0.11523-4.5664 0.11523h-1.8184s0.11381-0.11523 0.23047-0.11523h0.33984c0.56771 0 1.0225-0.10938 1.5996-0.10938 2.5052-0.23006 4.9081-0.34604 7.4102-0.45898 18.258-0.80314 36.624-1.1472 54.877-1.0332 9.699 0.11294 19.509 0.23003 29.205 0.57617 7.4219 0.34301 14.946 0.68983 22.361 1.2598 1.2542 0 2.626 0.10944 3.875 0.22656 1.6052 0 3.0827 0.11914 4.6816 0.11914 3.8792 0.10771 7.8699 0.22377 11.748 0.33984 9.924 0.22379 19.856 0.45812 29.893 0.91406 10.953 0.33987 21.896 0.91798 32.852 1.7148 5.1396 0.45699 10.374 0.91982 15.514 1.3789 4.675 0.45386 9.241 1.0278 13.916 1.7148 1.1448 0.1098 2.2911 0.22767 3.4297 0.34375 1.2479 0.22379 2.6193 0.34605 3.9922 0.45899 2.9667 0.34301 5.9286 0.57266 8.8984 0.80273 5.701 0.45699 11.525 0.9199 17.225 1.2598 1.8344 0.11294 3.7609 0.22768 5.5859 0.34375h1.4902s0.4582-1e-3 0.3457-0.11719c-0.1125 0-0.2332-0.11328-0.3457-0.11328-0.21979 0-0.33568 2e-3 -0.57422-0.11133-0.34167 0-0.67669-0.11328-1.0215-0.11328-0.46042-0.11607-0.91185-0.11571-1.3691-0.22656-3.1917-0.45909-6.5096-0.80425-9.6992-1.1504-5.5906-0.457-11.072-1.0285-16.656-1.6016-0.68332-0.11608-1.4838-0.23395-2.1641-0.34375-0.57396 0-1.0256-0.11216-1.5996-0.23242-0.45521 0-1.1388-0.10769-1.5898-0.33984-0.91875-0.33987-0.91745-1.1406-2.6289-1.7168-0.46042-0.11608-1.0233-0.2331-1.4941-0.45898 0 0-0.10937 4.28e-4 0-0.10938h0.35156c0.11562 0 0.23282 0.10938 0.33594 0.10938h0.45508c0.3448 0 0.79779 0.11719 1.1426 0.11719 1.1417 0.22693 2.2819 0.3422 3.5371 0.57227 3.5375 0.45699 7.1867 1.0282 10.84 1.4883 5.1334 0.68601 10.263 1.2605 15.404 1.8398 6.274 0.68286 12.545 1.373 18.93 1.832 3.6562 0.22693 7.3078 0.34025 10.961 0.57031 3.876 0.22693 7.6414 0.45903 11.41 0.91602 2.8469 0.34613 5.6969 0.805 8.4375 1.2578 3.8761 0.57308 7.7493 1.2601 11.635 2.0664 0.45521 0.1098 0.91823 0.10944 1.3672 0.22657 0.45729 0.1098 0.91316 0.10943 1.4902 0.22656 0.90626 0.11294 1.8219 0.22377 2.7344 0.33984 1.5958 0.22693 3.1949 0.45696 4.7949 0.57617 0.68334 0 1.8151 0.11066 2.3984-0.11523 0.10938 0-0.23047-0.11335-0.23047-0.23047-0.23541 0-0.34739-0.10937-0.57031-0.10937-0.23229-0.11608-0.57669-0.11725-0.80273-0.23438-0.9125-0.1098-1.7125-0.33914-2.625-0.45312-1.3698-0.22693-2.8538-0.57971-4.2246-0.80664-4.3365-0.68601-8.6666-1.4887-12.891-2.0586-11.869-1.9451-23.619-3.551-35.365-5.0391-11.292-1.4891-22.704-2.7527-34.002-3.8926-3.6406-0.34614-7.4113-0.69263-11.064-1.1465-1.0198-0.11608-2.0414-0.22376-3.0664-0.33984h-0.9121s-0.11654-0.11523-0.23633-0.11523c-0.91251-0.57307-2.057-0.68629-3.082-1.0293h0.33984c0.45521 0.11608 1.0311 0.11571 1.4863 0.22656 2.5146 0.23006 5.0164 0.45854 7.6445 0.80469 14.486 1.4891 28.976 2.8612 43.467 4.3535 5.6979 0.57621 11.409 1.1421 16.994 1.4883 1.376 0.11294 2.7396 0.22727 4.1094 0.11328l-0.11523-0.57617c-0.68646-0.33987-1.4796-0.45423-2.166-0.57031-1.251-0.33987-2.6251-0.57581-3.873-0.80274-4.001-0.68915-7.9908-1.3766-12.092-1.9434-11.752-1.7244-23.503-3.094-35.369-4.3594-12.778-1.2528-25.555-2.4011-38.33-3.3203-8.899-0.68601-17.913-1.3738-26.926-2.0566-35.931-2.8674-71.87-3.3241-107.8-4.123-5.8776-0.1166-11.782-0.14595-17.686-0.11719zm-61.828 1.7031c-8.3313 0.22693-16.546 0.56952-24.877 0.90625-6.6104 0.34928-13.23 0.69535-19.85 1.1523-0.79375 0-1.5951 0.11328-2.2774 0.11328-1.0312 0.1098-2.1652 0.11021-3.1934 0.23047v0.0039h-0.45898v0.11524h-0.11719v0.33984h0.11719v0.0039c0.22709 0 0.34336-0.11719 0.45898-0.11719v-0.0059h1.4805c0.56458 0 1.1431-0.10938 1.7129-0.10938v-2e-3c4.3323-0.23006 8.6613-0.4582 13.002-0.69141 11.406-0.57934 22.707-1.1472 34.002-1.6094zm-51.232 2.5215c-0.57188 0-1.1368 0.11328-1.8223 0.11328-0.11563 0-0.34141 0.10938-0.45703 0.10938h-0.22656c-0.1125 0.11608 0.11132 0.11719 0.11132 0.11719h2.8496v-0.33984h-0.11132zm0.45507 1.7129s-0.11132 3.41e-4 -0.11132 0.11328v2.0625h0.11132zm-0.56835 0.11328c-3.1875 0.23006-6.3945 0.46252-9.582 0.68945-1.2583 0.11294-2.507 0.22962-3.8789 0.3457-1.025 0.11294-2.052 0.11376-3.0801 0.22461-1.599 0-3.3072-8.44e-4 -5.0176 0.11524h-1.7148c-1.0219 0-2.0516 0.11328-2.9609 0.11328-3.0865 0.22693-6.1648 0.45939-9.1367 0.68945-9.6906 0.68601-19.39 1.4893-29.084 2.5215-3.8765 0.33981-7.7615 0.68256-11.744 1.1426h-2e-3c-24.074 2.5181-48.143 5.3813-72.102 9.0508-45.059 6.7587-89.897 15.233-134.39 25.883-13.916 3.3213-27.837 6.6415-41.637 10.422-3.6542 1.029-7.3074 2.0589-10.842 3.0879-2.85 0.8-5.7079 1.7227-8.5527 2.6367-1.6042 0.57621-3.3107 1.0284-4.793 1.7207l0.22852 0.57031c0.11146 0 0.34375-0.11328 0.45312-0.11328 0.34688-0.11608 0.68984-0.23047 1.0273-0.23047 1.1448-0.33987 2.2837-0.68832 3.541-0.91211 3.8771-1.1493 7.8687-2.178 11.859-3.207 11.869-3.0881 23.619-6.0709 35.484-8.8223l28.4-6.0684c-21.1 4.6902-42.093 9.7336-63.082 15.576-7.7594 2.172-15.63 4.3534-23.387 6.6426-1.2563 0.33987-2.5143 0.68557-3.7695 1.1426-1.025 0.2332-2.0445 0.57607-2.957 1.0352-0.80417 0.22379-1.4892 0.57105-2.1777 0.91406-0.45313 0.22693-0.90898 0.56869-1.3652 0.91797-0.11146 0.22379 0.3457 0.10938 0.3457 0.10938 0.45625-0.10981 0.91289-0.22572 1.3691-0.3418 1.8281-0.34301 3.6453-0.91278 5.4766-1.375 5.1344-1.486 10.262-2.9752 15.396-4.3535 3.6531-1.029 7.3055-2.062 10.949-3.0879 0.23542 0 0.34635-1e-3 0.46094-0.11718h0.11133c0 0.11608-0.11328 0.11718-0.11328 0.11718-0.22396 0-0.34049 0.10938-0.56445 0.10938-1.9438 0.69228-3.9948 1.259-5.9375 1.832-1.3656 0.33987-2.738 0.80696-3.9922 1.2598-0.34375 0.10981-0.68489 0.232-1.0234 0.3418-0.11458 0-0.34844 0.1169-0.46094 0.22461-0.22708 0.11922 0.46094 0 0.46094 0 0.68229-0.10771 1.369-0.33363 1.9336-0.45703 3.9917-0.91294 7.985-1.8264 11.865-2.8555 56.357-13.627 112.72-24.97 169.76-33.443l56.697-6.6426c-44.153 5.4933-87.957 12.601-131.99 20.27-15.061 2.7482-30.006 5.8454-45.062 9.0527-9.2438 2.056-18.369 4.2392-27.609 6.5273-3.0813 0.68601-6.16 1.4882-9.2402 2.2871-1.0281 0.22693-1.941 0.45869-2.8535 0.80274-0.22396 0-0.56849 0.11257-0.80078 0.22656-0.10938 0-0.22318 1e-3 -0.33984 0.11719 0.23021 0 0.45534-0.11719 0.68555-0.11719 1.1354-0.22693 2.1671-0.56954 3.3066-0.80273 4.2188-1.029 8.325-1.9414 12.547-2.9746 13.463-3.0975 26.927-6.1866 40.391-8.9316 22.925-4.6996 45.969-8.8235 69.016-12.717 39.131-6.6395 78.148-11.338 117.28-14.775v2e-3c5.3594-0.45699 10.72-0.91605 16.084-1.373 20.191-1.7161 40.381-3.0914 60.574-4.2344v2e-3h0.22656v-8.2539h-0.22656v-2e-3c-1.5958 0.11608-3.1983 0.2331-4.791 0.45898-8.5542 0.69228-17.226 1.4956-25.896 2.1816-3.8792 0.33987-7.8772 0.68476-11.748 0.91797-1.4813 0.10458-2.9699 0.22181-4.4512 0.33789-1.0281 0-2.0497 0.11608-3.082 0-0.11562 0-0.57083 0.11497-0.6875-0.11719-0.11146 0-4e-4 -0.2207 0.11523-0.2207 0.11875-0.11608 0.23424-0.1153 0.45508-0.23242l0.11719-0.11719h0.68164c1.0312 0 2.0547-0.10735 3.0859-0.22656 3.65-0.22693 7.1832-0.56876 10.721-0.79883 6.1604-0.57307 12.324-1.0321 18.482-1.4922 5.701-0.45908 11.294-0.80348 16.996-1.1465v-2.0586zm51.344 4.2422c-17.798 0.68601-35.362 1.3729-43.234 1.832-0.68854 0-1.3728 0.10352-2.1738 0.10352h-1.5918v4.3594c9.1275-0.45905 18.246-0.91281 27.377-1.375 6.5-0.22693 13.114-0.45653 19.623-0.68555zm-64.348 2.5117h2.0547c-0.11563 0-0.11433 0.0011-0.22266 0.11719-0.4625 0-0.80157-8.43e-4 -1.1484 0.11524-5.1313 0.45699-10.153 0.80382-15.281 1.2598-3.1969 0.33673-6.5069 0.57308-9.8184 0.79688-2.8438 0.11608-5.7004 0.34806-8.5566 0.57812-2.85 0.1098-5.8137 0.34102-8.6699 0.57422-3.3063 0.22379-6.7255 0.57615-10.039 0.91602-3.7625 0.45908-7.6448 0.7995-11.516 1.2617v-2e-3c-21.334 2.4021-42.671 5.1502-64.004 7.3223-4.9073 0.57621 8.0965-1.1402 12.662-1.8262 2.3969-0.34614 4.9065-0.69215 7.418-1.0352 0.79687-0.1098 1.713-0.2269 2.5078-0.33984 0.23021 0 0.57161-0.11328 0.80078-0.11328h0.45508c13.234-1.8353 26.694-3.3237 40.16-4.5859v-2e-3c10.377-1.0238 20.76-1.9414 31.027-2.8574 10.722-0.80627 21.448-1.6066 32.17-2.1797zm336.77 6.877v2e-3h-0.12305c-0.10729 0.11712 3.9e-4 0.11676 0.11914 0.22657 0.11563 0 0.33489 0.11523 0.57031 0.11523 0.225 0 0.34532 0.11328 0.46094 0.11328 0.2198 0 0.45156 1e-3 0.57031 0.11719 0.45208 0 0.90925 0.11523 1.3613 0.11523 2.176 0.22379 4.2279 0.34096 6.2852 0.45703h1.8242l0.21875-0.11523h-0.10547c-0.1125 0-0.2293-1e-3 -0.3418-0.11719h-0.57813c-0.22603-0.10772-0.45755-0.10742-0.68359-0.10742-0.68021-0.11398-1.4819-0.11439-2.1621-0.23047-2.5146-0.2332-5.0171-0.46009-7.416-0.57617zm33.314 3.3184c0.33541 0.11712 0.79401 0.11557 1.2461 0.22851-0.34167 0.11712 0.34085 0.34394 0.33985 0.33594 0.34479 0.11712 0.57943 0.11634 0.91797 0.23242 0.33854 0 0.79674 0.11676 1.252 0.22657 1.1417 0.2332 2.2849 0.34611 3.4297 0.57617 1.3635 0.23007 2.8467 0.4605 4.3301 0.57031 5.9302 0.91921 11.973 1.7218 18.025 2.7539 2.1698 0.33778 4.4482 0.56995 6.6211 0.79687 1.8188 0.23007 3.6437 0.46009 5.4688 0.57617 0.34479 0 0.81224 0.10981 1.1445 0l-0.11523-0.11523h-0.2168c-0.11875 0-0.23281-0.10937-0.35156-0.10937-0.1125-1e-5 -0.33516 6e-5 -0.45704-0.11915-0.21978 0-0.45389 3e-4 -0.5664-0.10742-0.56666-0.12026-1.1346-0.12143-1.7148-0.23437-1.825-0.34614-3.6414-0.57309-5.4727-0.79688-11.3-1.4912-22.592-3.7823-33.881-4.8144z" fill="#f58220"/>
  <path d="m496.88 90.275c-10.385-0.1098-20.765-0.11092-31.15 0.11914-11.981 0.11608-23.962 0.45498-35.938 0.91406-2.6208 0-5.1301 0.11753-7.752 0.23047v-0.0059c-8.4373 0.22693-17.006 0.5746-25.443 0.92383-6.6208 0.33673-13.232 0.68566-19.852 1.0234-0.68854 0.11608-1.2531 0.11523-1.9375 0.11523v0.0039c-1.3706 0.11285-2.7365 0.23328-4.2227 0.33984h-0.33984c-0.57187 0-1.2531 0.11524-1.8281 0.11524-0.22396 0-0.33647 0.0011-0.5625 0.11719h2.7305c0.68854-0.11608 1.3693-0.11523 2.0547-0.11523 0.80001-0.11608 1.4886-0.11719 2.1719-0.11719v-0.0039c4.2206-0.22686 8.4357-0.45869 12.656-0.68555 11.519-0.57307 23.046-1.146 34.572-1.4922v0.0078c4.2146-0.11712 8.3288-0.34095 12.553-0.45703 16.876-0.45908 33.651-0.68555 50.533-0.68555 3.8768 0 7.8668 0.1093 11.75 0.10938v0.0039c2.4021 0 4.7924 0.11328 7.3008 0.11328 2.1615 0 4.4521 0.11524 6.6094 0.11524 1.4917 0.11399 2.8626 0.1148 4.2324 0.22461h-18.137v1.5606h-2e-3v-1.5605h2e-3v-2e-3h-1.9434c-17.115-0.1098-34.224 0.11604-51.334 0.57617-7.1896 0.11608-14.373 0.34374-21.557 0.58008v1.3477c-1e-3 4.1e-5 -3e-3 -4.1e-5 -4e-3 0v-1.3516c-10.849 0.45595-21.793 0.91389-32.633 1.4922-4.9 0.22379-9.6996 0.56283-14.6 0.91211v2e-3c-1.3719 0-2.7391 0.11181-4.2266 0.22266h-0.56445c-3.0823 0.2332-6.282 0.45611-9.4727 0.69141-1.25 0.1098-2.5087 0.22767-3.8848 0.34375-1.0208 0-2.045 0.11524-3.0742 0.11524-1.7063 0.1098-3.4185 0.22461-5.0195 0.22461-0.68646 0-1.2555-8.44e-4 -1.8242 0.11523-0.9125 0-1.9346 0.11133-2.9648 0.11133-1.3729 0.11608-2.8536 0.23199-4.3359 0.3418v0.0059c-1.5942 0.11603-3.1988 0.2289-4.793 0.3418-9.6969 0.68601-19.284 1.6062-28.98 2.5254-3.9875 0.33673-7.8733 0.67973-11.744 1.1367v4e-3c-24.189 2.4115-48.144 5.3888-72.104 8.8262-44.946 6.7555-89.552 15-133.81 25.539-13.8 3.2104-27.608 6.6415-41.299 10.422-3.5385 0.91294-7.1881 1.9485-10.725 2.9785-2.8531 0.79686-5.7031 1.7163-8.4375 2.5215-1.599 0.5668-3.2003 1.0265-4.793 1.5996l0.11133 0.3457c0.22917 0 0.34167-0.11523 0.45312-0.11523 0.34792-0.11294 0.68776-0.2308 1.0273-0.34375 1.1448-0.22379 2.2858-0.57378 3.541-0.91992 3.876-1.0259 7.872-2.1711 11.748-3.2012 11.749-3.2073 23.387-6.1822 35.141-8.9336l16.191-3.5547c-16.881 3.8944-33.76 8.1377-50.533 12.832-7.7563 2.172-15.515 4.3558-23.268 6.6387-1.2604 0.34301-2.5143 0.69647-3.7695 1.0332-0.9125 0.33987-1.9371 0.68943-2.8496 1.0293-0.80313 0.23006-1.4885 0.5758-2.1719 0.80273-0.45313 0.23007-0.90976 0.45869-1.3691 0.80274-0.11563 0.1098 0.34375 0 0.34375 0 0.45938-0.11294 0.91367-0.22767 1.373-0.34375 1.825-0.57307 3.5336-1.0285 5.3555-1.6016 5.025-1.4892 10.156-2.8644 15.178-4.3535 3.65-1.029 7.3019-2.0608 10.955-3.0898 0.22396 0 0.34062-0.11328 0.45312-0.11328-0.22917 0.11294-0.3444 0.11259-0.56836 0.22656-1.9438 0.57621-3.9939 1.1424-5.9355 1.7207-1.3688 0.33987-2.6212 0.80305-3.9941 1.2559-0.34063 0-0.68711 0.11335-1.0215 0.23047-0.11562 0.11608-0.2319 0.11571-0.45898 0.22656-0.11562 0.11294 0.45885-0.10938 0.57031-0.10938 0.56875-0.11607 1.2585-0.23387 1.8262-0.46289 3.9917-0.91294 7.8693-2.0585 11.867-2.9746 55.784-14.2 111.91-25.543 168.84-34.131l56.701-6.9902c-44.153 5.3856-87.961 12.26-131.77 20.391-15.056 2.7451-29.999 5.9533-44.834 9.2715-9.2396 2.0654-18.364 4.24-27.492 6.5312-3.0813 0.80314-6.1599 1.6031-9.2422 2.4062-0.9125 0.2238-1.8219 0.45744-2.7344 0.6875-0.22708 0.11295-0.57344 0.23047-0.80469 0.23047-0.1125 0.1098-0.22917 0.10937-0.34375 0.10937 0.23021 0 0.45963-0.10937 0.68359-0.10937 1.1479-0.23007 2.1691-0.57344 3.3066-0.80664 4.1125-1.0322 8.3312-2.0608 12.438-3.0898 13.35-3.2042 26.701-6.2987 40.16-9.1641 22.815-4.8073 45.746-9.1614 68.791-13.055 39.019-6.5255 78.034-11.452 117.28-15.232v-2.2852c-21.448 2.4052-42.668 4.9264-64.119 7.5586-4.9031 0.57621 8.2169-1.2621 12.668-1.832 2.5083-0.33673 4.9036-0.6902 7.4141-1.0332 0.8-0.11294 1.7148-0.22266 2.5117-0.22266 0.33751-0.11608 0.56992-0.11719 0.79492-0.11719 0.11562-0.11607 0.34752-0.11523 0.45898-0.11523 13.35-1.7161 26.81-3.203 40.273-4.5781v-0.0117c10.266-0.91921 20.644-1.9469 31.027-2.75 4.7948-0.45909 9.6974-0.80347 14.492-1.1465v-1.4902c-3.7719 0.22693-7.5312 0.57064-11.406 0.91992-1.4844 0.1098-2.9747 0.2207-4.457 0.2207-1.0208 0.11608-2.0521 0.11529-3.0781 0.23242-0.1125 0-0.45651 8.5e-4 -0.6836-0.11523-0.1125 0 0.11133-0.11719 0.11133-0.11719 0.23229-0.10981 0.35064-0.10938 0.45898-0.10938l0.11329-0.10938h0.6914c1.0208-0.11608 2.0529-0.1153 3.1914-0.23242 3.5344-0.33987 7.0676-0.57064 10.721-0.91992 1.4813-0.10771 2.966-0.22376 4.3379-0.33984v-0.0098c4.7889-0.34296 9.464-0.6832 14.143-1.0293 5.7094-0.343 11.294-0.7988 16.996-1.1387v0.0039h0.68946c1.1365-0.11608 2.3965-0.1153 3.5371-0.23242v-2e-3h0.79687c0.45313 0 0.80273 8.44e-4 1.2559-0.11524h0.57227v0.11524h-0.46289c-0.67813 0.11712-1.3652 0.1183-2.1621 0.23438v2e-3h-0.11524c-1.3719 0.1098-2.7426 0.22377-4.1113 0.33984-1.5914 0.10973-3.1937 0.22777-4.7852 0.34375-8.6677 0.68392-17.225 1.3694-25.896 2.0586h-0.45312v1.4902c5.925-0.45699 11.75-0.80271 17.682-1.1426h1.3691c0.22709 0 0.34023-0.11719 0.45898-0.11719h0.22657v0.11719h-0.22657c-0.45938 0-0.80116-0.0016-1.2637 0.11133-5.0156 0.343-10.146 0.80075-15.168 1.1406-1.024 0.1234-2.0539 0.23243-3.082 0.23243-2.1677 0.22693-4.4492 0.34533-6.7305 0.57226-2.85 0.2332-5.8226 0.34966-8.6758 0.57031-2.8427 0.2332-5.8156 0.46643-8.6719 0.69336-3.3042 0.22692-6.6122 0.57496-10.035 0.91797-3.7667 0.33987-7.6406 0.80272-11.406 1.1426v2.2871c5.2458-0.45908 10.613-0.91292 15.973-1.373 9.8094-0.91607 19.734-1.6023 29.547-2.4023 10.376-0.68697 20.753-1.3782 31.139-1.9512 1.4875-0.10981 2.8538-0.22947 4.2246-0.23047v-2.5156h-1.2559c-0.34063-0.11608-0.57291-0.11523-0.79687-0.11523h-0.57031l2.625-0.11328v-0.0039l47.232-1.9434v-2.0391c1e-3 -4e-5 3e-3 4.1e-5 4e-3 0v2.041l24.865-0.91797c52.02-1.0238 13.23 0.11167-24.865 1.2578v2.291c20.758-0.57621 41.406-0.80304 62.174-0.45898 3.9875 0.11922 7.9728 0.22656 11.971 0.22656 0.22917 0 0.45715-8.44e-4 0.68945 0.11524v-2.0568c-5.1334-0.11608-10.156-0.11767-15.289-0.22852h-16.883c-3.7625 0-7.5293 8.43e-4 -11.295-0.11524h-1.25c-0.57709 0.11608-1.251 0.11524-1.8281 0.11524h-5.3613c-4.1073 0.1098-8.22 0.22767-12.324 0.34375-1.4833 0-2.9638-4.29e-4 -4.4492 0.10938h-1.8281s0.11914 4.29e-4 0.11914-0.10938h0.34179c0.57396 0 1.1319 8.43e-4 1.709-0.11524 2.399-0.11608 4.9046-0.22852 7.3066-0.22852 18.363-0.69229 36.731-0.91881 55.102-0.80274h5.9277v-2.5234h2e-3v2.5234h-2e-3v2e-3c7.7542 0.1098 15.624 0.22585 23.494 0.57617 7.4156 0.11294 14.944 0.45693 22.467 0.91602 1.2542 0.11399 2.6247 0.11362 3.8789 0.22656 1.6021 0 3.0796 0.11524 4.6816 0.11524 3.9979 0.23006 7.8736 0.34723 11.865 0.45703 9.925 0.34301 19.968 0.68433 30.006 1.2637 10.956 0.45699 22.018 1.1425 33.084 2.0586 5.1333 0.45595 10.382 0.91592 15.625 1.375 4.675 0.45909 9.2461 1.0261 13.918 1.6055 1.1479 0.11399 2.288 0.23011 3.5391 0.45703 1.251 0.11294 2.6243 0.23004 3.9941 0.33984 2.9625 0.34301 5.9286 0.68986 9.0078 0.91993 5.7063 0.57307 11.523 1.1457 17.23 1.7188 1.9375 0.11608 3.7598 0.34291 5.5879 0.45898 0.58021 0.10981 1.033 0.10938 1.4902 0.10938h0.33203c0-0.10981-0.11016-0.10938-0.22266-0.10938-0.22605 0-0.4513-0.11719-0.68359-0.11719-0.33542 0-0.68724-0.11523-1.0352-0.11523-0.45208-0.11085-0.90677-0.11167-1.3672-0.22461-3.1927-0.45386-6.494-0.80467-9.6836-1.1445-5.5969-0.68602-11.194-1.2578-16.775-1.834-0.80208-0.11294-1.4866-0.22572-2.1699-0.34179-0.57083 0-1.1366-0.10938-1.5918-0.10938-0.57292-0.11608-1.1436-0.23157-1.7207-0.34765-0.9125-0.22693-1.3642-0.79957-2.6152-1.1426-0.57396-0.11294-1.0292-0.11292-1.4844-0.33985h0.56445c0.10938 0.10981 0.34219 0.10938 0.46094 0.10938 0.45209 0 0.79114 0.11719 1.1328 0.11719 1.251 0.11398 2.3974 0.34095 3.5391 0.45703 3.6531 0.45908 7.4164 0.91592 11.066 1.375 5.1365 0.68601 10.265 1.3722 15.404 1.9453 6.2708 0.68601 12.659 1.4815 19.047 2.1738 3.6563 0.343 7.3094 0.68943 10.953 1.0293 3.8823 0.34928 7.6443 0.79567 11.523 1.375 2.7406 0.33674 5.5945 0.79887 8.4414 1.2559 3.8854 0.68601 7.7638 1.3745 11.637 2.0606 0.46354 0.11713 1.0272 0.23242 1.4824 0.23242 0.45417 0.10981 0.91263 0.22691 1.373 0.33985 1.0312 0.11294 1.9383 0.22891 2.8476 0.45898 1.6 0.23006 3.196 0.45737 4.7949 0.57031 0.68646 0.11713 1.7124 0.34265 2.3926 0.22657 0.12187 0-0.22265-0.10938-0.22265-0.10938-0.23229-0.11713-0.45899-0.11753-0.56836-0.23047-0.34167 0-0.58373-0.11328-0.91602-0.11328-0.79896-0.23216-1.7117-0.34291-2.5117-0.45898-1.4896-0.34615-2.9681-0.57581-4.3379-0.80274-4.3365-0.79895-8.6674-1.598-13.004-2.2871-11.866-1.9482-23.734-3.6682-35.6-5.2734-11.282-1.599-22.692-2.9784-34.105-4.2344-3.7667-0.343-7.4102-0.80975-11.176-1.1465-1.0344-0.11608-2.0582-0.22963-3.0801-0.34571-0.3448 0-0.57396 4.3e-4 -0.90625-0.10937h-0.23242c-1.0312-0.45595-2.0609-0.57966-3.0859-0.68945h0.3457c0.45521 0 0.90963 0.10937 1.4805 0.10937 2.5083 0.2332 5.1299 0.57972 7.6445 0.80664 14.599 1.6021 29.197 3.2078 43.689 4.9238 5.7167 0.68393 11.41 1.4886 17.111 2.0586 1.2542 0.11607 2.7439 0.34571 3.998 0.34571l-0.11719-0.45704c-0.6802-0.11922-1.4827-0.34604-2.166-0.45898-1.3646-0.23006-2.6259-0.45624-3.877-0.68945-4.1104-0.68601-8.101-1.2581-12.203-1.9473-11.861-1.7161-23.725-3.0879-35.486-4.4609-12.888-1.3752-25.665-2.6414-38.559-3.7812-9.0052-0.68706-18.018-1.3796-27.029-2.0625-36.173-2.7514-72.214-3.6675-108.27-4.3535-1.482-0.11597-2.9634-0.11523-4.3301-0.11523zm-445.61 58.07h-0.10938v0.11328zm370.78-51.771c-18.035 0.68915-35.826 1.2618-43.811 1.7188-0.69167 0-1.3677 0.11719-2.1719 0.11719h-1.25v2.5156c9.0104-0.56994 18.016-1.0259 27.037-1.373 6.7292-0.22693 13.463-0.46057 20.195-0.6875zm74.84 0.11523v2.0605h0.45117c1.1417 0 2.2857-8.45e-4 3.3086 0.11523h6.8438c1.599 0 3.0756 0.11719 4.6777 0.11719h14.834c5.5875 0 11.179 0.10978 16.762 0.33984 4.9104 0.1098 9.8173 0.34177 14.725 0.68164 4.9042 0.2332 9.9169 0.45945 14.824 0.80664 5.7042 0.33987 11.405 0.68908 17.115 0.91601 7.3 0.343 14.605 0.80382 22.016 1.2598 5.8198 0.45909 11.633 0.80348 17.459 1.1465 5.8167 0.457 11.748 0.80349 17.678 1.1465 1.9406 0.10981 3.8908 0.22265 5.8262 0.22265 0.11562 0 2.2754 0.11607 2.2754 0 0-0.2238-2.5079-0.57031-2.6152-0.57031-2.975-0.34614-5.8224-0.68511-8.7891-1.0312-2.0542-0.23007-4.2236-0.45815-6.2715-0.57422-2.8562-0.22693-5.7069-0.45744-8.4434-0.6875-5.249-0.457-10.492-0.8078-15.744-1.1445h-1.1387c-0.11563-0.11608-0.23593-0.11523-0.35156-0.11523h-0.2207l-0.11524-0.11329c0.45521-0.11607 0.91393-0.11571 1.3691-0.22656 0.22917-0.11921-0.22656-0.11914-0.22656-0.11914-0.22605-0.11294-0.45313-0.11328-0.6875-0.11328-0.45521-0.10981-0.90951-0.10937-1.248-0.10937-0.69271-0.1098-1.2499-0.11098-1.9394-0.23438-0.8 0-1.7177-0.10937-2.625-0.10937-2.6271-0.11294-5.2492-0.22963-7.8711-0.34571-10.041-0.45698-20.084-1.0233-30.125-1.4824-14.597-0.57934-29.205-1.0328-43.809-1.3789-9.3532-0.22693-18.59-0.45703-27.943-0.45703zm198.38 10.768c-0.11875 0 6.5e-4 0.11033 0.11524 0.11133 0.22916 0 0.34388 0.11523 0.57617 0.11523 0.225 0 0.33827 0.11329 0.45703 0.11329h0.67578c0.45416 0.11398 0.91393 0.23046 1.3691 0.23046 2.0563 0.22692 4.1107 0.46011 6.2773 0.57618 0.5435 0.10812 1.0973 0.11113 1.7402 0.11132-0.0858-5e-3 -0.17461-0.0266-0.26367-0.11132h-0.44922c-0.22604 0-0.5763-0.11719-0.79297-0.11719-0.68958-0.11713-1.3832-0.23242-2.1738-0.23242-2.5115-0.33987-5.0229-0.56995-7.5312-0.79688zm33.543 4.0078c0.45417 0.11085 0.7987 0.22657 1.2539 0.22657-0.34792 0.11608 0.3384 0.23242 0.45507 0.23242 0.23229 0.10771 0.56889 0.10657 0.79493 0.22265 0.45521 0 0.91262 0.1183 1.2637 0.23438 1.1312 0.11294 2.2724 0.34143 3.5391 0.56836 1.3615 0.23006 2.8413 0.45938 4.3184 0.68945 6.0583 0.91921 12.099 1.8362 18.148 2.8652 2.1667 0.45385 4.445 0.7988 6.7305 1.1387 1.7094 0.23634 3.5406 0.45897 5.3594 0.69531 0.30447 0.0987 0.69688 0.10837 1.0254 0.10938-5e-3 -5e-3 -0.11558-0.10938-0.22851-0.10938h-0.33204c-0.12187-0.11922-0.22864-0.11914-0.46093-0.11914-0.22292-0.11608-0.45586-0.11523-0.56836-0.11523-0.56771-0.11294-1.1389-0.22377-1.7129-0.33985-1.825-0.33986-3.759-0.57691-5.584-0.91992-11.301-1.8269-22.595-4.0006-34.002-5.3789zm42.889 6.9824c1.3e-4 1.1e-4 4e-3 2e-3 4e-3 2e-3h0.11133c-0.0347 0-0.0785-2e-3 -0.11524-2e-3z" fill="#ed1c24"/>
  <path d="m117.77 11.267c0.5125 7.8368-5.5438 17.321 1.7469 23.398 7.8-2.7817-0.41251-10.615 3.2865-16.078 4.0042-5.5655 9.5448-10.615 13.65-14.635 16.019-0.92863 33.781-2.7848 47.439 4.5344 23.306-4.2269 52.466-8.2457 74.747 0.92863 13.653-5.9806 32.344-8.7623 46.922-0.92863l4.1063 4.5354c4.1031-8.7623 12.727-9.5874 21.458-9.9984 8.6198-0.51451 17.253 3.0902 21.353 10.516-1.8438 14.121-4.9271 28.449-2.2625 43.081 6.3688-4.2238 10.475-14.632 14.584-22.883-4.1094-13.399 8.2136-21.541 16.839-28.034 17.253-0.82823 43.327-7.3161 54.32 9.1754 1.7427 3.7082-3.699 7.3129 0.82083 9.6847 14.581-27.619 48.257-22.054 72.9-18.86 9.0271 2.7817 18.579 4.1223 25.455 11.956 21.363-23.809 58.728-13.399 84.299-5.8761l15.405 9.4839c16.938-17.314 42.914-20.614 66.525-14.635 7.2906 3.1937 16.022 9.6847 19.207 17.419 6.3594 10.615-10.068 22.883 4.5136 31.645 1.4375 10.927-1.849 20.096-9.1427 27.415-22.174 18.655-54.621 24.739-81.103 12.27-5.8563-4.5375-5.8563-10.925-8.524-16.798-19.207 17.72-43.744 25.043-70.237 23.183l-12.723-6.3843c-6.8792 6.0842-16.019 9.6847-25.571 6.3843l-25.055-15.459c-7.6969 18.757-29.468 17.834-46.412 14.638-4.5136-8.664-10.364 1.3386-15.918 1.7527-10.471-1.7527-26.379 5.1534-30.591-9.075-0.31458-1.8531-1.2302-5.0457-3.601-5.5603-20.01-2.6782-30.486 21.541-50.512 14.635l-10.981-6.3937c-7.2875 5.9806-18.175 8.7623-26.903 4.641l-16.422-10.518c-7.7073 11.039-19.513 14.635-31.939 11.336-7.5959-11.336-16.734 2.3749-26.793-0.82092-18.691-1.8593-41.895 9.0719-56.063-6.4983-10.064 12.473-31.42 8.251-43.225 3.7135-4.7229-2.2672-3.2854-7.3161-4.7229-10.512-9.55 7.7333-25.874 3.7103-35.938 3.1958-5.4396 5.4599-11.805 11.854-20.021 11.854-7.8-1.7527-16.942 0.92863-21.869-6.3937-4.2125-8.6546 0-17.72 0-26.898 5.4396-22.887-17.351-50.818 12.73-63.703 15.917-2.2682 34.089-5.051 49.591 0z"/>
  <path d="m282.84 11.395c-6.8916-0.0515-13.72 2.1399-17.826 7.1914 1.4344 19.172 4.5216 42.981 0.92578 63.08 5.0344 5.1566 10.471 1.8521 16.836 2.7891 7.2938-8.2457-1.434-20.516 4.1035-30.615 14.172 9.5874 21.462 32.469 41.488 32.055 18.274-5.1566 10.978-26.597 12.725-41.232-1.3333-11.442 6.7812-22.882 0-31.645-7.2875-0.30745-17.251-3.6044-22.688 2.7852 3.0813 10.617 4.0035 24.327 0.82227 35.664-6.3656-10.411-21.462-20.097-18.176-33.811-4.3641-3.9168-11.319-6.2102-18.211-6.2617zm-197.63 0.21875c-7.0589-0.11634-13.887 0.78394-20.713 4.6992 4.9302 20.514 2.1563 44.328 1.8438 65.354 5.8531 4.228 16.745 4.228 23.107 0-4.9313-9.1723-1.2324-18.657-2.6699-29.686l2.6699-2.6797c3.2833 2.1647 3.6941 5.4592 4.6191 8.2461 2.6719 9.9984 9.9625 21.956 23.719 18.242 16.841 3.7135 13.245-19.171 27.826-22.879 5.0312 9.5853-2.2595 22.88 2.7676 30.604 7.8062 1.8625 19.616 4.5432 25.979-1.8516-3.2802-21.437-0.51289-46.999 0.92774-66.789-9.6563-5.0541-23.721-2.6824-35.115-1.8594 3.1813 15.567-14.274 27.109-23.309 38.965-5.0292-10.924-13.149-24.322-7.293-36.176l-2.2578-2.7852c-7.7531-0.15372-15.043-1.288-22.102-1.4043zm592.46 2e-3c-10.691 0.50196-21.264 3.9296-28.555 9.6504-4.6229 5.1545-7.2911 11.959-5.5391 18.865 5.8531 19.172 27.411 15.563 43.738 17.416 3.1865 0 7.2898 2.6824 7.6992 6.3906-12.735 12.782-33.169 0.3104-48.666 4.0176-0.92813 3.2983-2.3637 8.7631 0.92383 11.547 18.576 9.0719 45.893 6.3908 63.242-4.6387 5.4385-4.1255 6.3728-11.44 5.4394-17.316-7.2844-15.561-26.387-9.6882-40.041-13.811-4.0073-1.7506-5.8465-5.9814-4.9277-10.514 2.6677-7.3192 9.9581-11.959 18.176-11.033 9.1365 2.3728 5.8506 14.225 10.475 20.721 4.1021 1.7506 9.5432 0.82658 12.727-2.7812 2.3635-7.3213 0.51368-15.568-5.4395-20.615-7.7531-5.978-18.561-8.4004-29.252-7.8984zm-99.986 0.28125c-7.7057-0.05165-15.514 0.45129-23.033 1.1211-3.5886 0.52078-5.8517 4.6396-4.9277 9.1719 6.7844 15.567 6.3633 34.736 6.3633 53.6l3.1914 4.9473c23.608 9.6878 51.541 0.92554 68.777-17.729 5.9677-6.904 6.7928-17.005 5.5606-25.252-10.629-20.564-32.815-25.704-55.932-25.859zm-93.602 0.01563c-10.986-0.23438-21.729 0.96695-29.941 7.6016 5.4417 19.17 9.136 41.641 3.6953 61.227 4.5136 8.2415 16.734 4.2286 24.844 3.7109 2.3677-8.6577-4.825-15.563 0-23.297 2.774 0 5.9616-0.51344 8.2168 0.92969 16.436 6.8047 29.157 25.563 48.768 22.367 4.1042-0.93176 8.2154-4.9479 6.4727-8.6582-8.7313-6.904-21.561-10.612-27.42-19.174 5.8594-1.44 10.067-4.6335 13.662-9.1699 1.8458-5.4651 5.0253-12.472 0.91797-18.348-5.9479-11.442-18.684-13.713-29.67-16.082-6.2746-0.3098-12.953-0.96679-19.545-1.1074zm-256.94 0.13867c-13.85 0.06677-27.992 2.5146-40.572 5.6074 1.8521 18.243 3.2861 37.104 2.3652 56.279l4.6152 9.1719c18.586 5.4661 35.938 0.4043 55.037 0.4043 5.9542-0.40471 8.7258-5.8647 7.8008-10.508-11.501-5.052-22.382-2.2687-35.525-2.6797-2.7708-0.51765-3.284-3.2982-2.7715-5.4629 0.92188-5.5686 7.701-4.6367 12.734-4.6367 5.951-2.3749 21.868 2.2654 16.832-10.928-5.4417-10.103-20.428-2.7891-30.49-6.3906 0.92501-3.7114-2.3609-9.6899 2.7734-11.543 11.298-0.93281 24.947 1.8522 33.676-6.8066 0.4125-2.3686 2.7716-8.2448-2.2617-9.6816-7.6984-2.0502-15.903-2.8662-24.213-2.8262zm175.82 0.72461c-7.1745 0.06379-14.233 0.75964-20.393 3.0273-3.1813 22.881-20.124 43.499-33.262 63.701 4.1031 8.1432 16.427 6.3912 25.051 4.9512 2.6719-3.7134 0.51094-11.959 8.2109-11.443 12.319-0.51137 37.374-9.0695 36.969 12.883 9.4448-1.44 20.017 1.7555 28.227-2.7852-5.4292-17.931-14.161-34.321-20.014-51.738v-11.857l-3.6992-5.9746c-6.624-0.25882-13.915-0.82746-21.09-0.76367zm97.611 17.209c4.619-0.04019 9.0137 0.75784 12.189 3.752 1.4375 6.8047-6.3661 8.2473-10.367 10-5.5479-0.82196-9.6558 2.2696-15.506 0.92578-2.7771-3.1906-0.9207-8.7607-1.4394-13.293 4.3662-0.21889 9.8882-1.3392 15.123-1.3848zm83.266 0.02148c7.3107-0.04614 14.748 0.29331 18.252 8.6777 3.2833 7.8316-1.3349 15.567-6.7734 21.547-3.7052 3.7082-9.6574 4.6367-14.592 4.9473-4.5073-9.9984-4.5073-25.047 0-35.15 1.0274 0 2.0689-0.01489 3.1133-0.02148zm-185.76 11.977c3.5833 2.6792 5.4406 7.6267 6.875 11.852-3.2896 1.8552-10.065 2.2694-14.17 0.92774z" fill="#fff"/>
 </g>
</svg>